<svg width="24" height="24" viewBox="0 0 24 24" fill="none" xmlns="http://www.w3.org/2000/svg">
<path fill-rule="evenodd" clip-rule="evenodd" d="M6.99083 0.825867C7.40505 0.825867 7.74083 1.16165 7.74083 1.57587V3.12933H13.919V1.57587C13.919 1.16165 14.2548 0.825867 14.669 0.825867C15.0832 0.825867 15.419 1.16165 15.419 1.57587V3.12933H17.9322C19.1945 3.12933 20.2179 4.15265 20.2179 5.41497V12.6955C21.6267 13.7452 22.5391 15.4241 22.5391 17.3161C22.5391 20.4966 19.9609 23.0748 16.7805 23.0748C15.2592 23.0748 13.8757 22.4849 12.8462 21.5213H4.1115C2.84918 21.5213 1.82587 20.498 1.82587 19.2357V5.41497C1.82587 4.15264 2.84918 3.12933 4.1115 3.12933H6.24083V1.57587C6.24083 1.16165 6.57662 0.825867 6.99083 0.825867ZM6.24083 4.62933H4.1115C3.67761 4.62933 3.32587 4.98107 3.32587 5.41497V7.92819H18.7179V5.41497C18.7179 4.98107 18.3661 4.62933 17.9322 4.62933H15.419V6.18277C15.419 6.59699 15.0832 6.93277 14.669 6.93277C14.2548 6.93277 13.919 6.59699 13.919 6.18277V4.62933H7.74083V6.37473C7.74083 6.78894 7.40505 7.12473 6.99083 7.12473C6.57662 7.12473 6.24083 6.78894 6.24083 6.37473V4.62933ZM18.7179 9.42819H3.32587V19.2357C3.32587 19.6696 3.67761 20.0213 4.1115 20.0213H11.6955C11.2656 19.2148 11.0219 18.2939 11.0219 17.3161C11.0219 14.1357 13.6001 11.5575 16.7805 11.5575C17.4602 11.5575 18.1124 11.6753 18.7179 11.8915V9.42819ZM16.7805 21.5748C19.1325 21.5748 21.0391 19.6681 21.0391 17.3161C21.0391 14.9642 19.1325 13.0575 16.7805 13.0575C14.4285 13.0575 12.5219 14.9642 12.5219 17.3161C12.5219 19.6681 14.4285 21.5748 16.7805 21.5748Z" fill="#1da1f2"/>
<path d="M17 15V16.3485C17 16.6315 17.06 16.9112 17.1762 17.1692L18 19" stroke="#1da1f2" stroke-linecap="square"/>
</svg>
