<svg width="20" height="19" viewBox="0 0 20 19" fill="none" xmlns="http://www.w3.org/2000/svg">
<path d="M17.25 0.0179977H2.75C1.233 0.0179977 0 1.252 0 2.77V15.265C0 16.783 1.233 18.018 2.75 18.018H17.25C18.767 18.018 20 16.783 20 15.265V2.77C20 1.252 18.767 0.0179977 17.25 0.0179977ZM2.75 1.518H17.25C17.94 1.518 18.5 2.078 18.5 2.768V3.482L10.45 8.849C10.177 9.029 9.824 9.031 9.55 8.847L1.5 3.482V2.768C1.5 2.078 2.06 1.518 2.75 1.518V1.518ZM17.25 16.516H2.75C2.06 16.516 1.5 15.956 1.5 15.266V5.24L8.74 10.07C9.123 10.326 9.562 10.454 10 10.454C10.44 10.454 10.877 10.326 11.26 10.071L18.5 5.241V15.263C18.5 15.953 17.94 16.513 17.25 16.513V16.516Z" fill="black"/>
</svg>
