<svg width="12" height="10" viewBox="0 0 12 10" fill="none" xmlns="http://www.w3.org/2000/svg">
<path d="M11 1.64H1C0.586 1.64 0.25 1.303 0.25 0.889999C0.25 0.476999 0.586 0.139999 1 0.139999H11C11.414 0.139999 11.75 0.474999 11.75 0.889999C11.75 1.305 11.414 1.64 11 1.64ZM11 5.75H1C0.586 5.75 0.25 5.414 0.25 5C0.25 4.586 0.586 4.25 1 4.25H11C11.414 4.25 11.75 4.586 11.75 5C11.75 5.414 11.414 5.75 11 5.75ZM6 9.86H1C0.586 9.86 0.25 9.525 0.25 9.11C0.25 8.695 0.586 8.36 1 8.36H6C6.414 8.36 6.75 8.697 6.75 9.11C6.75 9.523 6.414 9.86 6 9.86Z" fill="black"/>
</svg>
