<svg width="20" height="20" viewBox="0 0 20 20" fill="none" xmlns="http://www.w3.org/2000/svg">
<path d="M17.9415 17.0584L14.8915 14.0084C15.9957 12.7001 16.6665 11.0117 16.6665 9.16675C16.6665 5.02508 13.3082 1.66675 9.1665 1.66675C5.02484 1.66675 1.6665 5.02508 1.6665 9.16675C1.6665 13.3084 5.02484 16.6667 9.1665 16.6667C11.0123 16.6667 12.6998 15.9967 14.0065 14.8917L17.0565 17.9417C17.179 18.0634 17.3398 18.1251 17.4982 18.1251C17.6565 18.1251 17.819 18.0642 17.9398 17.9417C18.1857 17.6976 18.1857 17.3026 17.9415 17.0584ZM2.9165 9.16675C2.9165 5.72091 5.72067 2.91675 9.1665 2.91675C12.6123 2.91675 15.4165 5.72091 15.4165 9.16675C15.4165 12.6126 12.6123 15.4167 9.1665 15.4167C5.72067 15.4167 2.9165 12.6126 2.9165 9.16675Z" fill="#828282"/>
</svg>
