<svg width="19" height="18" viewBox="0 0 19 18" fill="none" xmlns="http://www.w3.org/2000/svg">
<g clip-path="url(#clip0_72_282)">
<path d="M18.3277 11.7526C18.1087 11.5328 17.7524 11.5328 17.5327 11.7526L15.8677 13.4176V5.73756C15.8677 4.18656 14.6054 2.92506 13.0552 2.92506H8.66766C8.35716 2.92506 8.10516 3.17706 8.10516 3.48756C8.10516 3.79806 8.35716 4.05006 8.66766 4.05006H13.0552C13.9852 4.05006 14.7427 4.80756 14.7427 5.73756V13.4176L13.0777 11.7526C12.8579 11.5328 12.5017 11.5328 12.2827 11.7526C12.0637 11.9723 12.0622 12.3286 12.2827 12.5476L14.9077 15.1726C15.0164 15.2828 15.1604 15.3376 15.3052 15.3376C15.4499 15.3376 15.5924 15.2836 15.7027 15.1726L18.3277 12.5476C18.5482 12.3286 18.5482 11.9723 18.3277 11.7526ZM10.3327 14.2126H5.94516C5.01516 14.2126 4.25766 13.4551 4.25766 12.5251V4.84506L5.92266 6.51006C6.03366 6.62031 6.17766 6.67506 6.32166 6.67506C6.46566 6.67506 6.60966 6.62031 6.71916 6.51006C6.93891 6.29031 6.93891 5.93406 6.71916 5.71506L4.09416 3.09006C3.87441 2.86956 3.51816 2.86956 3.29916 3.09006L0.674164 5.71506C0.453664 5.93406 0.453664 6.29031 0.674164 6.51006C0.894664 6.72981 1.24941 6.72981 1.46916 6.51006L3.13416 4.84506V12.5251C3.13416 14.0761 4.39641 15.3376 5.94666 15.3376H10.3342C10.6447 15.3376 10.8967 15.0856 10.8967 14.7751C10.8967 14.4646 10.6439 14.2126 10.3342 14.2126H10.3327Z" fill="#828282"/>
</g>
<defs>
<clipPath id="clip0_72_282">
<rect width="18" height="18" fill="white" transform="translate(0.5)"/>
</clipPath>
</defs>
</svg>
