<svg width="22" height="22" viewBox="0 0 22 22" fill="none" xmlns="http://www.w3.org/2000/svg">
<path d="M15.5 9.25C14.535 9.25 13.75 10.037 13.75 11C13.75 11.963 14.534 12.75 15.5 12.75C16.464 12.75 17.25 11.964 17.25 11C17.25 10.036 16.464 9.25 15.5 9.25ZM15.5 11.75C15.086 11.75 14.75 11.414 14.75 11C14.75 10.587 15.087 10.25 15.5 10.25C15.913 10.25 16.25 10.586 16.25 11C16.25 11.413 15.914 11.75 15.5 11.75ZM11 9.25C10.034 9.25 9.25 10.037 9.25 11C9.25 11.963 10.035 12.75 11 12.75C11.965 12.75 12.75 11.964 12.75 11C12.75 10.036 11.966 9.25 11 9.25ZM11 11.75C10.586 11.75 10.25 11.414 10.25 11C10.25 10.587 10.587 10.25 11 10.25C11.413 10.25 11.75 10.586 11.75 11C11.75 11.413 11.414 11.75 11 11.75ZM6.5 9.25C5.535 9.25 4.75 10.037 4.75 11C4.75 11.963 5.535 12.75 6.5 12.75C7.464 12.75 8.25 11.964 8.25 11C8.25 10.036 7.463 9.25 6.5 9.25ZM6.5 11.75C6.086 11.75 5.75 11.414 5.75 11C5.75 10.587 6.087 10.25 6.5 10.25C6.913 10.25 7.25 10.586 7.25 11C7.25 11.413 6.914 11.75 6.5 11.75Z" fill="black"/>
<path d="M11 21.75C5.072 21.75 0.25 16.928 0.25 11C0.25 5.072 5.072 0.25 11 0.25C16.928 0.25 21.75 5.072 21.75 11C21.75 16.928 16.928 21.75 11 21.75ZM11 1.75C5.9 1.75 1.75 5.9 1.75 11C1.75 16.1 5.9 20.25 11 20.25C16.1 20.25 20.25 16.1 20.25 11C20.25 5.9 16.1 1.75 11 1.75Z" fill="black"/>
</svg>
