<svg width="19" height="18" viewBox="0 0 19 18" fill="none" xmlns="http://www.w3.org/2000/svg">
<path d="M11.0343 1.68145L7.92328 1.67395H7.92178C4.64128 1.67395 2.07178 4.2442 2.07178 7.52545C2.07178 10.599 4.46128 12.9299 7.67053 13.0529V15.924C7.67053 16.005 7.70353 16.1384 7.76053 16.2262C7.86703 16.3949 8.04853 16.4865 8.23453 16.4865C8.33803 16.4865 8.44228 16.458 8.53603 16.398C8.73403 16.2719 13.3908 13.2929 14.602 12.2684C16.0285 11.0609 16.882 9.29095 16.8843 7.53445V7.5217C16.8798 4.24645 14.3118 1.68145 11.0343 1.6807V1.68145ZM13.8745 11.4104C13.024 12.1304 10.228 13.9642 8.79553 14.8927V12.5024C8.79553 12.1919 8.54428 11.9399 8.23303 11.9399H7.93603C5.19103 11.9399 3.19753 10.083 3.19753 7.52545C3.19753 4.87495 5.27353 2.79895 7.92253 2.79895L11.0328 2.80645H11.0343C13.6833 2.80645 15.7593 4.88095 15.7608 7.52845C15.7585 8.96095 15.0543 10.4114 13.8753 11.4104H13.8745Z" fill="#828282"/>
</svg>
