<svg width="19" height="18" viewBox="0 0 19 18" fill="none" xmlns="http://www.w3.org/2000/svg">
<path d="M13.6474 5.60256L9.89739 1.85256C9.67764 1.63281 9.32139 1.63281 9.10239 1.85256L5.35239 5.60256C5.13189 5.82231 5.13189 6.17856 5.35239 6.39756C5.57289 6.61656 5.92764 6.61806 6.14739 6.39756L8.93739 3.60756V11.2501C8.93739 11.5606 9.18939 11.8126 9.49989 11.8126C9.81039 11.8126 10.0624 11.5606 10.0624 11.2501V3.60756L12.8524 6.39756C12.9619 6.50781 13.1059 6.56256 13.2499 6.56256C13.3939 6.56256 13.5379 6.50856 13.6474 6.39756C13.8671 6.17781 13.8671 5.82231 13.6474 5.60256Z" fill="#828282"/>
<path d="M15.281 16.458H3.719C2.771 16.458 2 15.687 2 14.739V10.5C2 10.1895 2.252 9.9375 2.5625 9.9375C2.873 9.9375 3.125 10.1895 3.125 10.5V14.739C3.125 15.0668 3.39125 15.333 3.719 15.333H15.281C15.6088 15.333 15.875 15.0668 15.875 14.739V10.5C15.875 10.1895 16.127 9.9375 16.4375 9.9375C16.748 9.9375 17 10.1895 17 10.5V14.739C17 15.687 16.229 16.458 15.281 16.458Z" fill="#828282"/>
</svg>
