<svg width="22" height="22" viewBox="0 0 22 22" fill="none" xmlns="http://www.w3.org/2000/svg">
<path d="M11 21.75C5.072 21.75 0.25 16.928 0.25 11C0.25 5.072 5.072 0.25 11 0.25C16.928 0.25 21.75 5.072 21.75 11C21.75 16.928 16.928 21.75 11 21.75ZM11 1.75C5.9 1.75 1.75 5.9 1.75 11C1.75 16.1 5.9 20.25 11 20.25C16.1 20.25 20.25 16.1 20.25 11C20.25 5.9 16.1 1.75 11 1.75Z" fill="#1DA1F2"/>
<path d="M11 16.115C9.10801 16.115 7.36701 15.165 6.34401 13.571C6.12001 13.223 6.22101 12.761 6.57001 12.536C6.91801 12.31 7.38201 12.412 7.60601 12.762C8.35301 13.924 9.62201 14.617 11.001 14.617C12.38 14.617 13.649 13.924 14.397 12.763C14.621 12.413 15.085 12.313 15.433 12.538C15.783 12.762 15.883 13.226 15.659 13.574C14.634 15.168 12.893 16.119 11.001 16.119L11 16.115Z" fill="#1DA1F2"/>
<path d="M13.738 9.93601C14.5543 9.93601 15.216 9.27429 15.216 8.45801C15.216 7.64173 14.5543 6.98001 13.738 6.98001C12.9217 6.98001 12.26 7.64173 12.26 8.45801C12.26 9.27429 12.9217 9.93601 13.738 9.93601Z" fill="#1DA1F2"/>
<path d="M8.26206 9.93601C9.07833 9.93601 9.74006 9.27429 9.74006 8.45801C9.74006 7.64173 9.07833 6.98001 8.26206 6.98001C7.44578 6.98001 6.78406 7.64173 6.78406 8.45801C6.78406 9.27429 7.44578 9.93601 8.26206 9.93601Z" fill="#1DA1F2"/>
</svg>
