<svg width="19" height="18" viewBox="0 0 19 18" fill="none" xmlns="http://www.w3.org/2000/svg">
<path d="M9.4999 16.2285H9.4894C7.55215 16.1925 1.9624 11.142 1.9624 6.35847C1.9624 4.06047 3.85615 2.04297 6.01465 2.04297C7.73215 2.04297 8.88715 3.22797 9.49915 4.09047C10.1097 3.22947 11.2647 2.04297 12.9829 2.04297C15.1429 2.04297 17.0359 4.06047 17.0359 6.35922C17.0359 11.1412 11.4454 16.1917 9.50815 16.227H9.4999V16.2285ZM6.0154 3.16872C4.4554 3.16872 3.08815 4.65972 3.08815 6.35997C3.08815 10.665 8.36365 15.057 9.50065 15.1035C10.6392 15.057 15.9132 10.6657 15.9132 6.35997C15.9132 4.65972 14.5459 3.16872 12.9859 3.16872C11.0899 3.16872 10.0309 5.37072 10.0219 5.39247C9.8494 5.81397 9.1549 5.81397 8.98165 5.39247C8.97115 5.36997 7.9129 3.16872 6.01615 3.16872H6.0154Z" fill="#828282"/>
</svg>
