<svg width="22" height="22" viewBox="0 0 22 22" fill="none" xmlns="http://www.w3.org/2000/svg">
<path d="M21.5 11.5C21.5 9.92 20.625 8.55 19.352 7.9C19.506 7.465 19.59 6.995 19.59 6.5C19.59 4.29 17.88 2.502 15.772 2.502C15.302 2.502 14.852 2.586 14.436 2.752C13.818 1.415 12.51 0.5 11 0.5C9.49002 0.5 8.18402 1.417 7.56302 2.75C7.14802 2.585 6.69702 2.5 6.22702 2.5C4.11702 2.5 2.40902 4.29 2.40902 6.5C2.40902 6.994 2.49202 7.464 2.64602 7.9C1.37402 8.55 0.499023 9.918 0.499023 11.5C0.499023 12.995 1.28102 14.298 2.44102 14.986C2.42102 15.156 2.40902 15.326 2.40902 15.5C2.40902 17.71 4.11702 19.5 6.22702 19.5C6.69702 19.5 7.14702 19.414 7.56202 19.25C8.18202 20.584 9.48802 21.5 10.999 21.5C12.511 21.5 13.817 20.584 14.436 19.25C14.851 19.413 15.301 19.498 15.772 19.498C17.882 19.498 19.59 17.708 19.59 15.498C19.59 15.324 19.578 15.154 19.557 14.985C20.715 14.298 21.5 12.995 21.5 11.501V11.5ZM14.884 8.166L10.55 14.666C10.405 14.883 10.168 15 9.92502 15C9.78202 15 9.63702 14.96 9.50902 14.874L9.39402 14.78L6.97902 12.365C6.68602 12.072 6.68602 11.597 6.97902 11.305C7.27202 11.013 7.74702 11.011 8.03902 11.305L9.80902 13.072L13.634 7.332C13.864 6.987 14.33 6.896 14.674 7.125C15.02 7.355 15.114 7.821 14.884 8.165V8.166Z" fill="#1da1f2"/>
</svg>
